<svg width="165" height="343" viewBox="0 0 165 343" version="1.1" xmlns="http://www.w3.org/2000/svg" xmlns:xlink="http://www.w3.org/1999/xlink" xmlns:figma="http://www.figma.com/figma/ns">
<title>Drew Buikema</title>
<desc>Created using Figma</desc>
<g id="Canvas" transform="translate(81 112)" figma:type="canvas">
<g id="Drew Buikema" style="mix-blend-mode:normal;" figma:type="text">
<use xlink:href="#path0_fill" transform="matrix(6.12323e-17 -1 1 6.12323e-17 -85 234)" fill="#FFFFFF" style="mix-blend-mode:normal;"/>
</g>
</g>
<defs>
<path id="path0_fill" d="M 3.36 68.16L 9.408 68.16L 9.408 8.64L 3.36 8.64L 3.36 4.8L 23.52 4.8C 28.128 4.8 32.48 5.6 36.576 7.2C 40.672 8.736 44.256 10.976 47.328 13.92C 50.4 16.8 52.832 20.32 54.624 24.48C 56.416 28.64 57.312 33.28 57.312 38.4C 57.312 42.176 56.64 46.048 55.296 50.016C 54.016 53.984 51.904 57.6 48.96 60.864C 46.016 64.128 42.176 66.816 37.44 68.928C 32.768 70.976 27.04 72 20.256 72L 3.36 72L 3.36 68.16ZM 13.344 8.64L 13.344 68.16L 21.696 68.16C 27.008 68.16 31.648 67.328 35.616 65.664C 39.584 63.936 42.88 61.696 45.504 58.944C 48.128 56.128 50.08 52.96 51.36 49.44C 52.704 45.856 53.376 42.176 53.376 38.4C 53.376 33.856 52.576 29.76 50.976 26.112C 49.44 22.4 47.296 19.264 44.544 16.704C 41.856 14.08 38.688 12.096 35.04 10.752C 31.456 9.344 27.616 8.64 23.52 8.64L 13.344 8.64ZM 64.0163 68.16L 71.5042 68.16L 71.5042 39.84L 64.5923 39.84L 64.5923 36L 74.7682 36L 74.8643 39.36C 74.9282 40.448 74.9922 41.44 75.0563 42.336C 75.1203 43.232 75.1522 44.224 75.1522 45.312C 76.6242 42.176 78.7683 39.744 81.5842 38.016C 84.4642 36.224 87.3763 35.296 90.3202 35.232L 90.0322 39.168C 87.9842 39.232 86.0643 39.616 84.2723 40.32C 82.5443 40.96 81.0082 41.856 79.6642 43.008C 78.3842 44.16 77.3602 45.536 76.5922 47.136C 75.8243 48.736 75.4402 50.464 75.4402 52.32L 75.4402 68.16L 82.5443 68.16L 82.5443 72L 64.0163 72L 64.0163 68.16ZM 115.832 39.072C 113.464 39.072 111.288 39.584 109.304 40.608C 107.384 41.568 105.752 42.88 104.408 44.544C 103.064 46.144 102.104 48.032 101.528 50.208C 101.016 52.32 100.984 54.496 101.432 56.736C 105.72 55.008 110.008 53.312 114.296 51.648C 118.584 49.92 122.904 48.192 127.256 46.464C 126.168 44.288 124.6 42.528 122.552 41.184C 120.504 39.776 118.264 39.072 115.832 39.072ZM 132.344 48.672C 127.352 50.656 122.392 52.64 117.464 54.624C 112.536 56.544 107.576 58.496 102.584 60.48C 103.672 62.912 105.4 64.896 107.768 66.432C 110.136 67.968 112.824 68.736 115.832 68.736C 117.816 68.736 119.672 68.384 121.4 67.68C 123.128 66.976 124.632 65.984 125.912 64.704C 126.36 65.216 126.776 65.728 127.16 66.24C 127.544 66.688 127.96 67.168 128.408 67.68C 126.744 69.216 124.856 70.432 122.744 71.328C 120.632 72.224 118.328 72.672 115.832 72.672C 113.208 72.672 110.744 72.192 108.44 71.232C 106.2 70.208 104.216 68.864 102.488 67.2C 100.824 65.536 99.4802 63.584 98.4563 61.344C 97.4962 59.04 97.0163 56.576 97.0163 53.952C 97.0163 51.392 97.4962 48.96 98.4563 46.656C 99.4802 44.352 100.824 42.368 102.488 40.704C 104.216 39.04 106.2 37.728 108.44 36.768C 110.744 35.744 113.208 35.232 115.832 35.232C 117.752 35.232 119.576 35.584 121.304 36.288C 123.032 36.928 124.6 37.856 126.008 39.072C 127.48 40.224 128.76 41.632 129.848 43.296C 130.936 44.896 131.768 46.688 132.344 48.672ZM 197.855 36L 214.079 36L 214.079 39.84L 207.455 39.84C 204.575 45.664 201.695 51.424 198.815 57.12C 195.999 62.752 193.151 68.448 190.271 74.208L 177.215 48.096L 164.159 74.208C 161.279 68.448 158.399 62.752 155.519 57.12C 152.703 51.424 149.855 45.664 146.975 39.84L 139.391 39.84L 139.391 36L 156.575 36L 156.575 39.84L 151.007 39.84C 153.247 44.384 155.487 48.928 157.727 53.472C 159.967 57.952 162.111 62.432 164.159 66.912C 165.695 63.584 167.263 60.288 168.863 57.024C 170.463 53.696 172.095 50.368 173.759 47.04C 173.439 45.824 173.119 44.64 172.799 43.488C 172.479 42.272 172.159 41.056 171.839 39.84L 165.695 39.84L 165.695 36L 183.455 36L 183.455 39.84L 177.119 39.84C 179.359 44.384 181.599 48.928 183.839 53.472C 186.079 57.952 188.223 62.432 190.271 66.912C 192.383 62.368 194.527 57.856 196.703 53.376C 198.943 48.896 201.183 44.384 203.423 39.84L 197.855 39.84L 197.855 36ZM 3.36 164.16L 9.216 164.16L 9.216 104.64L 3.36 104.64L 3.36 100.8L 24.576 100.8C 27.584 100.8 30.304 101.12 32.736 101.76C 35.232 102.4 37.344 103.392 39.072 104.736C 40.864 106.08 42.24 107.84 43.2 110.016C 44.16 112.128 44.64 114.656 44.64 117.6C 44.64 121.568 43.648 125.056 41.664 128.064C 39.744 131.072 36.768 133.12 32.736 134.208C 34.656 134.592 36.48 135.232 38.208 136.128C 39.936 137.024 41.44 138.176 42.72 139.584C 44.064 140.992 45.12 142.624 45.888 144.48C 46.72 146.336 47.136 148.416 47.136 150.72C 47.136 153.6 46.56 156.128 45.408 158.304C 44.256 160.416 42.688 162.208 40.704 163.68C 38.784 165.088 36.576 166.176 34.08 166.944C 31.584 167.648 28.992 168 26.304 168L 3.36 168L 3.36 164.16ZM 13.152 136.128L 13.152 164.16L 25.92 164.16C 28.288 164.16 30.496 163.872 32.544 163.296C 34.656 162.72 36.48 161.856 38.016 160.704C 39.616 159.552 40.864 158.144 41.76 156.48C 42.72 154.752 43.2 152.736 43.2 150.432C 43.2 147.936 42.656 145.792 41.568 144C 40.544 142.208 39.136 140.736 37.344 139.584C 35.616 138.368 33.6 137.504 31.296 136.992C 29.056 136.416 26.72 136.128 24.288 136.128L 13.152 136.128ZM 13.152 104.64L 13.152 132.288L 25.824 132.288C 30.368 132.288 33.984 130.976 36.672 128.352C 39.36 125.664 40.704 122.176 40.704 117.888C 40.704 115.52 40.32 113.504 39.552 111.84C 38.848 110.112 37.824 108.736 36.48 107.712C 35.136 106.624 33.504 105.856 31.584 105.408C 29.728 104.896 27.68 104.64 25.44 104.64L 13.152 104.64ZM 53.8913 132L 64.9313 132L 64.9313 156.96C 65.0592 159.008 65.7952 160.8 67.1392 162.336C 68.5473 163.872 70.5953 164.704 73.2833 164.832C 75.2673 164.832 77.1552 164.512 78.9473 163.872C 80.7392 163.168 82.3073 162.24 83.6512 161.088C 84.9952 159.936 86.0513 158.56 86.8192 156.96C 87.6512 155.36 88.0673 153.6 88.0673 151.68L 88.0673 135.84L 80.9633 135.84L 80.9633 132L 92.0992 132L 92.0992 164.544L 98.9153 164.544L 98.9153 168L 88.5472 168L 88.3552 163.008L 88.3552 158.688C 87.0753 161.76 84.9952 164.224 82.1152 166.08C 79.2993 167.872 76.1313 168.768 72.6113 168.768C 69.0912 168.768 66.3072 167.776 64.2593 165.792C 62.2113 163.808 61.1232 161.216 60.9952 158.016L 60.9952 135.84L 53.8913 135.84L 53.8913 132ZM 105.641 164.16L 113.033 164.16L 113.033 135.84L 105.641 135.84L 105.641 132L 117.065 132L 117.065 164.16L 124.169 164.16L 124.169 168L 105.641 168L 105.641 164.16ZM 111.977 119.232C 111.977 118.336 112.297 117.6 112.937 117.024C 113.577 116.384 114.313 116.064 115.145 116.064C 115.913 116.064 116.617 116.384 117.257 117.024C 117.897 117.6 118.217 118.336 118.217 119.232C 118.217 120.128 117.897 120.896 117.257 121.536C 116.617 122.112 115.913 122.4 115.145 122.4C 114.313 122.4 113.577 122.112 112.937 121.536C 112.297 120.896 111.977 120.128 111.977 119.232ZM 154.668 164.16L 159.276 164.16C 157.42 161.6 155.532 159.072 153.612 156.576C 151.756 154.016 149.9 151.456 148.044 148.896L 141.9 154.656L 141.9 164.16L 149.388 164.16L 149.388 168L 130.86 168L 130.86 164.16L 137.964 164.16L 137.964 99.84L 131.148 99.84L 131.148 96L 141.9 96L 141.9 149.76L 156.78 135.84L 151.02 135.84L 151.02 132L 168.78 132L 168.78 135.84L 161.868 135.84C 159.884 137.696 158.06 139.424 156.396 141.024C 154.796 142.624 153.004 144.352 151.02 146.208C 153.132 149.28 155.276 152.288 157.452 155.232C 159.628 158.176 161.836 161.152 164.076 164.16L 172.428 164.16L 172.428 168L 154.668 168L 154.668 164.16ZM 197.957 135.072C 195.589 135.072 193.413 135.584 191.429 136.608C 189.509 137.568 187.877 138.88 186.533 140.544C 185.189 142.144 184.229 144.032 183.653 146.208C 183.141 148.32 183.109 150.496 183.557 152.736C 187.845 151.008 192.133 149.312 196.421 147.648C 200.709 145.92 205.029 144.192 209.381 142.464C 208.293 140.288 206.725 138.528 204.677 137.184C 202.629 135.776 200.389 135.072 197.957 135.072ZM 214.469 144.672C 209.477 146.656 204.517 148.64 199.589 150.624C 194.661 152.544 189.701 154.496 184.709 156.48C 185.797 158.912 187.525 160.896 189.893 162.432C 192.261 163.968 194.949 164.736 197.957 164.736C 199.941 164.736 201.797 164.384 203.525 163.68C 205.253 162.976 206.757 161.984 208.037 160.704C 208.485 161.216 208.901 161.728 209.285 162.24C 209.669 162.688 210.085 163.168 210.533 163.68C 208.869 165.216 206.981 166.432 204.869 167.328C 202.757 168.224 200.453 168.672 197.957 168.672C 195.333 168.672 192.869 168.192 190.565 167.232C 188.325 166.208 186.341 164.864 184.613 163.2C 182.949 161.536 181.605 159.584 180.581 157.344C 179.621 155.04 179.141 152.576 179.141 149.952C 179.141 147.392 179.621 144.96 180.581 142.656C 181.605 140.352 182.949 138.368 184.613 136.704C 186.341 135.04 188.325 133.728 190.565 132.768C 192.869 131.744 195.333 131.232 197.957 131.232C 199.877 131.232 201.701 131.584 203.429 132.288C 205.157 132.928 206.725 133.856 208.133 135.072C 209.605 136.224 210.885 137.632 211.973 139.296C 213.061 140.896 213.893 142.688 214.469 144.672ZM 275.756 164.16L 283.244 164.16L 283.244 143.04C 283.116 140.992 282.348 139.2 280.94 137.664C 279.596 136.128 277.58 135.296 274.892 135.168C 272.972 135.168 271.116 135.488 269.324 136.128C 267.532 136.768 265.964 137.664 264.62 138.816C 263.276 139.968 262.188 141.344 261.356 142.944C 260.588 144.48 260.172 146.176 260.108 148.032L 260.108 164.16L 267.212 164.16L 267.212 168L 248.588 168L 248.588 164.16L 256.076 164.16L 256.076 143.04C 255.948 140.992 255.18 139.2 253.772 137.664C 252.428 136.128 250.412 135.296 247.724 135.168C 245.804 135.168 243.948 135.52 242.156 136.224C 240.364 136.864 238.764 137.76 237.356 138.912C 236.012 140.064 234.924 141.44 234.092 143.04C 233.324 144.64 232.94 146.4 232.94 148.32L 232.94 164.16L 240.044 164.16L 240.044 168L 221.516 168L 221.516 164.16L 229.004 164.16L 229.004 135.84L 222.092 135.84L 222.092 132L 232.268 132L 232.364 135.36C 232.428 136.448 232.492 137.44 232.556 138.336C 232.62 139.232 232.652 140.224 232.652 141.312C 233.996 138.24 236.044 135.808 238.796 134.016C 241.612 132.224 244.844 131.296 248.492 131.232C 251.756 131.232 254.38 132.128 256.364 133.92C 258.412 135.648 259.628 137.952 260.012 140.832C 261.356 137.952 263.404 135.648 266.156 133.92C 268.908 132.192 272.044 131.296 275.564 131.232C 279.084 131.232 281.868 132.224 283.916 134.208C 285.964 136.192 287.052 138.784 287.18 141.984L 287.18 164.16L 294.284 164.16L 294.284 168L 275.756 168L 275.756 164.16ZM 301.016 149.952C 301.016 147.392 301.496 144.992 302.456 142.752C 303.48 140.448 304.824 138.464 306.488 136.8C 308.216 135.072 310.232 133.728 312.536 132.768C 314.84 131.744 317.304 131.232 319.928 131.232C 321.784 131.232 323.544 131.52 325.208 132.096C 326.872 132.608 328.376 133.312 329.72 134.208C 331.064 135.04 332.184 136.032 333.08 137.184C 334.04 138.272 334.744 139.36 335.192 140.448C 335.192 139.04 335.224 137.632 335.288 136.224C 335.416 134.816 335.512 133.408 335.576 132L 338.84 132L 338.84 164.16L 345.944 164.16L 345.944 168L 335.192 168L 335.192 164.16C 335.192 163.392 335.192 162.656 335.192 161.952C 335.256 161.184 335.288 160.448 335.288 159.744C 334.84 160.832 334.136 161.92 333.176 163.008C 332.28 164.096 331.16 165.056 329.816 165.888C 328.536 166.72 327.032 167.392 325.304 167.904C 323.64 168.416 321.848 168.672 319.928 168.672C 317.304 168.672 314.84 168.192 312.536 167.232C 310.232 166.208 308.216 164.864 306.488 163.2C 304.824 161.536 303.48 159.584 302.456 157.344C 301.496 155.04 301.016 152.576 301.016 149.952ZM 305.048 149.952C 305.048 152 305.432 153.92 306.2 155.712C 306.968 157.504 307.992 159.072 309.272 160.416C 310.616 161.76 312.184 162.816 313.976 163.584C 315.832 164.352 317.816 164.736 319.928 164.736C 322.04 164.736 323.992 164.352 325.784 163.584C 327.576 162.816 329.144 161.76 330.488 160.416C 331.832 159.072 332.888 157.504 333.656 155.712C 334.424 153.92 334.808 152 334.808 149.952C 334.808 147.904 334.424 145.984 333.656 144.192C 332.888 142.336 331.832 140.736 330.488 139.392C 329.144 138.048 327.576 136.992 325.784 136.224C 323.992 135.456 322.04 135.072 319.928 135.072C 317.816 135.072 315.832 135.456 313.976 136.224C 312.184 136.992 310.616 138.048 309.272 139.392C 307.992 140.736 306.968 142.336 306.2 144.192C 305.432 145.984 305.048 147.904 305.048 149.952Z"/>
</defs>
</svg>
