<svg width="56" height="443" viewBox="0 0 56 443" version="1.1" xmlns="http://www.w3.org/2000/svg" xmlns:xlink="http://www.w3.org/1999/xlink" xmlns:figma="http://www.figma.com/figma/ns">
<title>Drew Buikema</title>
<desc>Created using Figma</desc>
<g id="Canvas" transform="translate(45 402)" figma:type="canvas">
<g id="Drew Buikema" style="mix-blend-mode:normal;" figma:type="text">
<use xlink:href="#path0_fill" transform="matrix(6.12323e-17 -1 1 6.12323e-17 -45 43)" fill="#FFFFFF" style="mix-blend-mode:normal;"/>
</g>
</g>
<defs>
<path id="path0_fill" d="M 2.52 51.12L 7.056 51.12L 7.056 6.48L 2.52 6.48L 2.52 3.6L 17.64 3.6C 21.096 3.6 24.36 4.2 27.432 5.4C 30.504 6.552 33.192 8.232 35.496 10.44C 37.8 12.6 39.624 15.24 40.968 18.36C 42.312 21.48 42.984 24.96 42.984 28.8C 42.984 31.632 42.48 34.536 41.472 37.512C 40.512 40.488 38.928 43.2 36.72 45.648C 34.512 48.096 31.632 50.112 28.08 51.696C 24.576 53.232 20.28 54 15.192 54L 2.52 54L 2.52 51.12ZM 10.008 6.48L 10.008 51.12L 16.272 51.12C 20.256 51.12 23.736 50.496 26.712 49.248C 29.688 47.952 32.16 46.272 34.128 44.208C 36.096 42.096 37.56 39.72 38.52 37.08C 39.528 34.392 40.032 31.632 40.032 28.8C 40.032 25.392 39.432 22.32 38.232 19.584C 37.08 16.8 35.472 14.448 33.408 12.528C 31.392 10.56 29.016 9.072 26.28 8.064C 23.592 7.008 20.712 6.48 17.64 6.48L 10.008 6.48ZM 48.0122 51.12L 53.6282 51.12L 53.6282 29.88L 48.4442 29.88L 48.4442 27L 56.0762 27L 56.1482 29.52C 56.1962 30.336 56.2442 31.08 56.2922 31.752C 56.3402 32.424 56.3642 33.168 56.3642 33.984C 57.4682 31.632 59.0762 29.808 61.1882 28.512C 63.3482 27.168 65.5322 26.472 67.7402 26.424L 67.5242 29.376C 65.9882 29.424 64.5482 29.712 63.2042 30.24C 61.9082 30.72 60.7562 31.392 59.7482 32.256C 58.7882 33.12 58.0202 34.152 57.4442 35.352C 56.8682 36.552 56.5802 37.848 56.5802 39.24L 56.5802 51.12L 61.9082 51.12L 61.9082 54L 48.0122 54L 48.0122 51.12ZM 86.8742 29.304C 85.0982 29.304 83.4662 29.688 81.9782 30.456C 80.5382 31.176 79.3142 32.16 78.3062 33.408C 77.2982 34.608 76.5782 36.024 76.1462 37.656C 75.7622 39.24 75.7382 40.872 76.0742 42.552C 79.2902 41.256 82.5062 39.984 85.7222 38.736C 88.9382 37.44 92.1782 36.144 95.4422 34.848C 94.6262 33.216 93.4502 31.896 91.9142 30.888C 90.3782 29.832 88.6982 29.304 86.8742 29.304ZM 99.2582 36.504C 95.5142 37.992 91.7942 39.48 88.0982 40.968C 84.4022 42.408 80.6822 43.872 76.9382 45.36C 77.7542 47.184 79.0502 48.672 80.8262 49.824C 82.6022 50.976 84.6182 51.552 86.8742 51.552C 88.3622 51.552 89.7542 51.288 91.0502 50.76C 92.3462 50.232 93.4742 49.488 94.4342 48.528C 94.7702 48.912 95.0822 49.296 95.3702 49.68C 95.6582 50.016 95.9702 50.376 96.3062 50.76C 95.0582 51.912 93.6422 52.824 92.0582 53.496C 90.4742 54.168 88.7462 54.504 86.8742 54.504C 84.9062 54.504 83.0582 54.144 81.3302 53.424C 79.6502 52.656 78.1622 51.648 76.8662 50.4C 75.6182 49.152 74.6102 47.688 73.8422 46.008C 73.1222 44.28 72.7622 42.432 72.7622 40.464C 72.7622 38.544 73.1222 36.72 73.8422 34.992C 74.6102 33.264 75.6182 31.776 76.8662 30.528C 78.1622 29.28 79.6502 28.296 81.3302 27.576C 83.0582 26.808 84.9062 26.424 86.8742 26.424C 88.3142 26.424 89.6822 26.688 90.9782 27.216C 92.2742 27.696 93.4502 28.392 94.5062 29.304C 95.6102 30.168 96.5702 31.224 97.3862 32.472C 98.2022 33.672 98.8262 35.016 99.2582 36.504ZM 148.391 27L 160.559 27L 160.559 29.88L 155.591 29.88C 153.431 34.248 151.271 38.568 149.111 42.84C 146.999 47.064 144.863 51.336 142.703 55.656L 132.911 36.072L 123.119 55.656C 120.959 51.336 118.799 47.064 116.639 42.84C 114.527 38.568 112.391 34.248 110.231 29.88L 104.543 29.88L 104.543 27L 117.431 27L 117.431 29.88L 113.255 29.88C 114.935 33.288 116.615 36.696 118.295 40.104C 119.975 43.464 121.583 46.824 123.119 50.184C 124.271 47.688 125.447 45.216 126.647 42.768C 127.847 40.272 129.071 37.776 130.319 35.28C 130.079 34.368 129.839 33.48 129.599 32.616C 129.359 31.704 129.119 30.792 128.879 29.88L 124.271 29.88L 124.271 27L 137.591 27L 137.591 29.88L 132.839 29.88C 134.519 33.288 136.199 36.696 137.879 40.104C 139.559 43.464 141.167 46.824 142.703 50.184C 144.287 46.776 145.895 43.392 147.527 40.032C 149.207 36.672 150.887 33.288 152.567 29.88L 148.391 29.88L 148.391 27ZM 187.161 51.12L 191.553 51.12L 191.553 6.48L 187.161 6.48L 187.161 3.6L 203.073 3.6C 205.329 3.6 207.369 3.84 209.193 4.32C 211.065 4.8 212.649 5.544 213.945 6.552C 215.289 7.56 216.321 8.88 217.041 10.512C 217.761 12.096 218.121 13.992 218.121 16.2C 218.121 19.176 217.377 21.792 215.889 24.048C 214.449 26.304 212.217 27.84 209.193 28.656C 210.633 28.944 212.001 29.424 213.297 30.096C 214.593 30.768 215.721 31.632 216.681 32.688C 217.689 33.744 218.481 34.968 219.057 36.36C 219.681 37.752 219.993 39.312 219.993 41.04C 219.993 43.2 219.561 45.096 218.697 46.728C 217.833 48.312 216.657 49.656 215.169 50.76C 213.729 51.816 212.073 52.632 210.201 53.208C 208.329 53.736 206.385 54 204.369 54L 187.161 54L 187.161 51.12ZM 194.505 30.096L 194.505 51.12L 204.081 51.12C 205.857 51.12 207.513 50.904 209.049 50.472C 210.633 50.04 212.001 49.392 213.153 48.528C 214.353 47.664 215.289 46.608 215.961 45.36C 216.681 44.064 217.041 42.552 217.041 40.824C 217.041 38.952 216.633 37.344 215.817 36C 215.049 34.656 213.993 33.552 212.649 32.688C 211.353 31.776 209.841 31.128 208.113 30.744C 206.433 30.312 204.681 30.096 202.857 30.096L 194.505 30.096ZM 194.505 6.48L 194.505 27.216L 204.009 27.216C 207.417 27.216 210.129 26.232 212.145 24.264C 214.161 22.248 215.169 19.632 215.169 16.416C 215.169 14.64 214.881 13.128 214.305 11.88C 213.777 10.584 213.009 9.552 212.001 8.784C 210.993 7.968 209.769 7.392 208.329 7.056C 206.937 6.672 205.401 6.48 203.721 6.48L 194.505 6.48ZM 225.059 27L 233.339 27L 233.339 45.72C 233.435 47.256 233.987 48.6 234.995 49.752C 236.051 50.904 237.587 51.528 239.603 51.624C 241.091 51.624 242.507 51.384 243.851 50.904C 245.195 50.376 246.371 49.68 247.379 48.816C 248.387 47.952 249.179 46.92 249.755 45.72C 250.379 44.52 250.691 43.2 250.691 41.76L 250.691 29.88L 245.363 29.88L 245.363 27L 253.715 27L 253.715 51.408L 258.827 51.408L 258.827 54L 251.051 54L 250.907 50.256L 250.907 47.016C 249.947 49.32 248.387 51.168 246.227 52.56C 244.115 53.904 241.739 54.576 239.099 54.576C 236.459 54.576 234.371 53.832 232.835 52.344C 231.299 50.856 230.483 48.912 230.387 46.512L 230.387 29.88L 225.059 29.88L 225.059 27ZM 263.872 51.12L 269.416 51.12L 269.416 29.88L 263.872 29.88L 263.872 27L 272.44 27L 272.44 51.12L 277.768 51.12L 277.768 54L 263.872 54L 263.872 51.12ZM 268.624 17.424C 268.624 16.752 268.864 16.2 269.344 15.768C 269.824 15.288 270.376 15.048 271 15.048C 271.576 15.048 272.104 15.288 272.584 15.768C 273.064 16.2 273.304 16.752 273.304 17.424C 273.304 18.096 273.064 18.672 272.584 19.152C 272.104 19.584 271.576 19.8 271 19.8C 270.376 19.8 269.824 19.584 269.344 19.152C 268.864 18.672 268.624 18.096 268.624 17.424ZM 300.642 51.12L 304.098 51.12C 302.706 49.2 301.29 47.304 299.85 45.432C 298.458 43.512 297.066 41.592 295.674 39.672L 291.066 43.992L 291.066 51.12L 296.682 51.12L 296.682 54L 282.786 54L 282.786 51.12L 288.114 51.12L 288.114 2.88L 283.002 2.88L 283.002 0L 291.066 0L 291.066 40.32L 302.226 29.88L 297.906 29.88L 297.906 27L 311.226 27L 311.226 29.88L 306.042 29.88C 304.554 31.272 303.186 32.568 301.938 33.768C 300.738 34.968 299.394 36.264 297.906 37.656C 299.49 39.96 301.098 42.216 302.73 44.424C 304.362 46.632 306.018 48.864 307.698 51.12L 313.962 51.12L 313.962 54L 300.642 54L 300.642 51.12ZM 333.109 29.304C 331.333 29.304 329.701 29.688 328.213 30.456C 326.773 31.176 325.549 32.16 324.541 33.408C 323.533 34.608 322.813 36.024 322.381 37.656C 321.997 39.24 321.973 40.872 322.309 42.552C 325.525 41.256 328.741 39.984 331.957 38.736C 335.173 37.44 338.413 36.144 341.677 34.848C 340.861 33.216 339.685 31.896 338.149 30.888C 336.613 29.832 334.933 29.304 333.109 29.304ZM 345.493 36.504C 341.749 37.992 338.029 39.48 334.333 40.968C 330.637 42.408 326.917 43.872 323.173 45.36C 323.989 47.184 325.285 48.672 327.061 49.824C 328.837 50.976 330.853 51.552 333.109 51.552C 334.597 51.552 335.989 51.288 337.285 50.76C 338.581 50.232 339.709 49.488 340.669 48.528C 341.005 48.912 341.317 49.296 341.605 49.68C 341.893 50.016 342.205 50.376 342.541 50.76C 341.293 51.912 339.877 52.824 338.293 53.496C 336.709 54.168 334.981 54.504 333.109 54.504C 331.141 54.504 329.293 54.144 327.565 53.424C 325.885 52.656 324.397 51.648 323.101 50.4C 321.853 49.152 320.845 47.688 320.077 46.008C 319.357 44.28 318.997 42.432 318.997 40.464C 318.997 38.544 319.357 36.72 320.077 34.992C 320.845 33.264 321.853 31.776 323.101 30.528C 324.397 29.28 325.885 28.296 327.565 27.576C 329.293 26.808 331.141 26.424 333.109 26.424C 334.549 26.424 335.917 26.688 337.213 27.216C 338.509 27.696 339.685 28.392 340.741 29.304C 341.845 30.168 342.805 31.224 343.621 32.472C 344.437 33.672 345.061 35.016 345.493 36.504ZM 391.458 51.12L 397.074 51.12L 397.074 35.28C 396.978 33.744 396.402 32.4 395.346 31.248C 394.338 30.096 392.826 29.472 390.81 29.376C 389.37 29.376 387.978 29.616 386.634 30.096C 385.29 30.576 384.114 31.248 383.106 32.112C 382.098 32.976 381.282 34.008 380.658 35.208C 380.082 36.36 379.77 37.632 379.722 39.024L 379.722 51.12L 385.05 51.12L 385.05 54L 371.082 54L 371.082 51.12L 376.698 51.12L 376.698 35.28C 376.602 33.744 376.026 32.4 374.97 31.248C 373.962 30.096 372.45 29.472 370.434 29.376C 368.994 29.376 367.602 29.64 366.258 30.168C 364.914 30.648 363.714 31.32 362.658 32.184C 361.65 33.048 360.834 34.08 360.21 35.28C 359.634 36.48 359.346 37.8 359.346 39.24L 359.346 51.12L 364.674 51.12L 364.674 54L 350.778 54L 350.778 51.12L 356.394 51.12L 356.394 29.88L 351.21 29.88L 351.21 27L 358.842 27L 358.914 29.52C 358.962 30.336 359.01 31.08 359.058 31.752C 359.106 32.424 359.13 33.168 359.13 33.984C 360.138 31.68 361.674 29.856 363.738 28.512C 365.85 27.168 368.274 26.472 371.01 26.424C 373.458 26.424 375.426 27.096 376.914 28.44C 378.45 29.736 379.362 31.464 379.65 33.624C 380.658 31.464 382.194 29.736 384.258 28.44C 386.322 27.144 388.674 26.472 391.314 26.424C 393.954 26.424 396.042 27.168 397.578 28.656C 399.114 30.144 399.93 32.088 400.026 34.488L 400.026 51.12L 405.354 51.12L 405.354 54L 391.458 54L 391.458 51.12ZM 410.403 40.464C 410.403 38.544 410.763 36.744 411.483 35.064C 412.251 33.336 413.259 31.848 414.507 30.6C 415.803 29.304 417.315 28.296 419.043 27.576C 420.771 26.808 422.619 26.424 424.587 26.424C 425.979 26.424 427.299 26.64 428.547 27.072C 429.795 27.456 430.923 27.984 431.931 28.656C 432.939 29.28 433.779 30.024 434.451 30.888C 435.171 31.704 435.699 32.52 436.035 33.336C 436.035 32.28 436.059 31.224 436.107 30.168C 436.203 29.112 436.275 28.056 436.323 27L 438.771 27L 438.771 51.12L 444.099 51.12L 444.099 54L 436.035 54L 436.035 51.12C 436.035 50.544 436.035 49.992 436.035 49.464C 436.083 48.888 436.107 48.336 436.107 47.808C 435.771 48.624 435.243 49.44 434.523 50.256C 433.851 51.072 433.011 51.792 432.003 52.416C 431.043 53.04 429.915 53.544 428.619 53.928C 427.371 54.312 426.027 54.504 424.587 54.504C 422.619 54.504 420.771 54.144 419.043 53.424C 417.315 52.656 415.803 51.648 414.507 50.4C 413.259 49.152 412.251 47.688 411.483 46.008C 410.763 44.28 410.403 42.432 410.403 40.464ZM 413.427 40.464C 413.427 42 413.715 43.44 414.291 44.784C 414.867 46.128 415.635 47.304 416.595 48.312C 417.603 49.32 418.779 50.112 420.123 50.688C 421.515 51.264 423.003 51.552 424.587 51.552C 426.171 51.552 427.635 51.264 428.979 50.688C 430.323 50.112 431.499 49.32 432.507 48.312C 433.515 47.304 434.307 46.128 434.883 44.784C 435.459 43.44 435.747 42 435.747 40.464C 435.747 38.928 435.459 37.488 434.883 36.144C 434.307 34.752 433.515 33.552 432.507 32.544C 431.499 31.536 430.323 30.744 428.979 30.168C 427.635 29.592 426.171 29.304 424.587 29.304C 423.003 29.304 421.515 29.592 420.123 30.168C 418.779 30.744 417.603 31.536 416.595 32.544C 415.635 33.552 414.867 34.752 414.291 36.144C 413.715 37.488 413.427 38.928 413.427 40.464Z"/>
</defs>
</svg>
